REM DIRINDEX 1\2,1\3,1\4
REM DIRNAME folder01,folder02,folder03,folder04
TITLE ""
FILE "Track12.mp3" MP3
  TRACK 01 AUDIO
    TITLE "4:cjc141_056"
    INDEX 01 00:00:00
  TRACK 02 AUDIO
    TITLE "2:cjc141_057"
    INDEX 01 00:01:52
  TRACK 03 AUDIO
    TITLE "0:"
    INDEX 01 00:16:04
  TRACK 04 AUDIO
    TITLE "3:cjc141_058"
    INDEX 01 00:17:55
  TRACK 05 AUDIO
    TITLE "0:"
    INDEX 01 00:30:71
